HIERARCHY
ROOT Hips
{
    OFFSET 0.000000 0.000000 0.000000
    CHANNELS 6 Xposition Yposition Zposition Zrotation Xrotation Yrotation
    JOINT Spine
    {
        OFFSET -0.000000 8.834163 0.000000
        CHANNELS 3 Zrotation Xrotation Yrotation
        JOINT Spine1
        {
            OFFSET -0.000000 17.855492 0.000000
            CHANNELS 3 Zrotation Xrotation Yrotation
            JOINT Neck
            {
                OFFSET -0.000000 17.782162 1.616560
                CHANNELS 3 Zrotation Xrotation Yrotation
                JOINT Head
                {
                    OFFSET -0.000000 15.082717 -2.154674
                    CHANNELS 3 Zrotation Xrotation Yrotation
                    End Site
                    {
                        OFFSET -0.000000 26.933422 0.000000
                    }
                }
            }
            JOINT LeftShoulder
            {
                OFFSET 4.280775 15.989452 -0.632416
                CHANNELS 3 Zrotation Xrotation Yrotation
                JOINT LeftArm
                {
                    OFFSET 11.735877 0.000000 0.000000
                    CHANNELS 3 Zrotation Xrotation Yrotation
                    JOINT LeftForeArm
                    {
                        OFFSET 33.149986 0.000000 0.000000
                        CHANNELS 3 Zrotation Xrotation Yrotation
                        JOINT LeftHand
                        {
                            OFFSET 28.572401 0.000000 0.000000
                            CHANNELS 3 Zrotation Xrotation Yrotation
                            End Site
                            {
                                OFFSET 16.160055 0.000000 0.000000
                            }
                        }
                    }
                }
            }
            JOINT RightShoulder
            {
                OFFSET -4.290631 15.989452 -0.632416
                CHANNELS 3 Zrotation Xrotation Yrotation
                JOINT RightArm
                {
                    OFFSET -11.735877 0.000000 0.000000
                    CHANNELS 3 Zrotation Xrotation Yrotation
                    JOINT RightForeArm
                    {
                        OFFSET -33.149986 0.000000 0.000000
                        CHANNELS 3 Zrotation Xrotation Yrotation
                        JOINT RightHand
                        {
                            OFFSET -28.572401 0.000000 0.000000
                            CHANNELS 3 Zrotation Xrotation Yrotation
                            End Site
                            {
                                OFFSET -16.160055 0.000000 0.000000
                            }
                        }
                    }
                }
            }
        }
    }
    JOINT LeftUpLeg
    {
        OFFSET 10.773369 0.000000 0.000000
        CHANNELS 3 Zrotation Xrotation Yrotation
        JOINT LeftLeg
        {
            OFFSET -0.000000 -54.062664 0.000000
            CHANNELS 3 Zrotation Xrotation Yrotation
            JOINT LeftFoot
            {
                OFFSET -0.000000 -48.941059 0.000000
                CHANNELS 3 Zrotation Xrotation Yrotation
                JOINT LeftToeBase
                {
                    OFFSET -0.000000 -7.002690 16.160055
                    CHANNELS 3 Zrotation Xrotation Yrotation
                    End Site
                    {
                        OFFSET -0.000000 0.000000 4.309348
                    }
                }
            }
        }
    }
    JOINT RightUpLeg
    {
        OFFSET -10.773369 0.000000 0.000000
        CHANNELS 3 Zrotation Xrotation Yrotation
        JOINT RightLeg
        {
            OFFSET -0.000000 -54.062664 0.000000
            CHANNELS 3 Zrotation Xrotation Yrotation
            JOINT RightFoot
            {
                OFFSET -0.000000 -48.941059 0.000000
                CHANNELS 3 Zrotation Xrotation Yrotation
                JOINT RightToeBase
                {
                    OFFSET -0.000000 -7.002690 16.160055
                    CHANNELS 3 Zrotation Xrotation Yrotation
                    End Site
                    {
                        OFFSET -0.000000 0.000000 4.309348
                    }
                }
            }
        }
    }
}
MOTION
Frames:    10
Frame Time:    0.008333
88.155029    110.660553    21.102503    -0.901906    -3.344087    -85.415741    -4.966152    -21.689831    -3.601348    1.077997    8.132662    -2.726046    10.428388    41.873920    3.499899    -16.453461    -15.975256    1.813426    17.151735    -0.437516    3.535619    -14.710594    -7.536318    -11.641057    2.881350    -4.561356    6.032677    3.565573    -4.771836    -1.905590    -12.039559    -2.617189    13.398534    5.150653    -8.143725    3.631445    -1.872526    0.170832    -6.814215    -10.589372    -0.187388    2.669688    -2.587972    8.516153    -3.244289    2.179853    3.445520    -0.074209    -2.682556    -10.213871    12.657587    0.000000    0.000000    0.000000    -4.051462    8.956859    4.896063    -1.921699    2.329510    -1.235258    0.537493    -12.536886    -19.629892    0.000000    0.000000    0.000000    
88.152634    110.658577    21.108179    -0.901299    -3.336612    -85.414345    -4.949473    -21.689159    -3.595917    1.058619    8.122225    -2.722358    10.281047    41.759884    3.622330    -16.216967    -15.820535    1.976382    17.160505    -0.438044    3.534910    -14.703869    -7.523344    -11.634445    2.898276    -4.569075    6.026314    3.334860    -4.778236    -1.966972    -12.027143    -2.649277    13.395019    5.163701    -8.138835    3.624192    -1.873646    0.191450    -6.786314    -10.589239    -0.166251    2.657470    -2.581436    8.519114    -3.265614    2.182463    3.468081    -0.376404    -2.631034    -10.260450    12.969506    0.000000    0.000000    0.000000    -4.048082    8.955921    4.910208    -1.918605    2.335603    -1.262176    0.556937    -12.552480    -19.614153    0.000000    0.000000    0.000000    
88.152435    110.658813    21.113907    -0.899366    -3.338787    -85.407310    -4.955181    -21.695761    -3.598584    1.060167    8.128271    -2.723826    10.373580    41.828011    3.557684    -16.367743    -15.924557    1.884872    17.163235    -0.435999    3.540459    -14.705594    -7.540390    -11.645148    2.913617    -4.515450    6.042977    3.245914    -4.724597    -1.976208    -12.032054    -2.664142    13.389575    5.171794    -8.094262    3.624567    -1.871974    0.176254    -6.764500    -10.607203    -0.178919    2.640649    -2.587354    8.513677    -3.257215    2.186747    3.475468    -0.404574    -2.636281    -10.267999    12.981614    0.000000    0.000000    0.000000    -4.054929    8.954278    4.864885    -1.914914    2.341543    -1.164751    0.544990    -12.558174    -19.673443    0.000000    0.000000    0.000000    
88.148270    110.657814    21.121042    -0.903843    -3.342299    -85.403130    -4.957455    -21.695961    -3.599406    1.053385    8.123371    -2.723650    10.391109    41.839840    3.556436    -16.389797    -15.935295    1.881924    17.176687    -0.420348    3.540939    -14.719445    -7.548388    -11.644637    2.920767    -4.523144    6.034668    3.254684    -4.732601    -1.975752    -11.991439    -2.702346    13.453522    5.125850    -8.027574    3.536183    -1.855512    0.157517    -6.727344    -10.603316    -0.196753    2.638247    -2.600166    8.519434    -3.243144    2.198348    3.449129    -0.114746    -2.687722    -10.230029    12.676909    0.000000    0.000000    0.000000    -4.056991    8.963159    4.861038    -1.925376    2.336049    -1.194873    0.574411    -12.559046    -19.639441    0.000000    0.000000    0.000000    
88.147926    110.656845    21.127483    -0.901274    -3.340528    -85.395889    -4.957694    -21.695021    -3.597747    1.054239    8.106527    -2.721892    10.455112    41.861778    3.525556    -16.470345    -15.946754    1.845038    17.174408    -0.414736    3.524309    -14.716860    -7.553044    -11.637995    2.908290    -4.578218    6.027203    3.343670    -4.788060    -1.965811    -11.994370    -2.665990    13.465026    5.120305    -8.051567    3.514781    -1.855199    0.162879    -6.706117    -10.582830    -0.189378    2.638128    -2.596033    8.519070    -3.248899    2.190986    3.473387    -0.406873    -2.606699    -10.254394    12.974415    0.000000    0.000000    0.000000    -4.061098    8.959856    4.834410    -1.918304    2.339832    -1.227997    0.565942    -12.563384    -19.588858    0.000000    0.000000    0.000000    
88.144348    110.656296    21.131737    -0.905782    -3.335814    -85.397766    -4.951458    -21.696848    -3.597276    1.045410    8.108322    -2.721933    10.474608    41.874191    3.513222    -16.495182    -15.966056    1.829204    17.188177    -0.415955    3.533297    -14.719731    -7.536202    -11.633801    2.905923    -4.582444    6.018689    3.356581    -4.792246    -1.967797    -12.012956    -2.616202    13.408304    5.151760    -8.116668    3.610518    -1.858433    0.175648    -6.730968    -10.563364    -0.178762    2.650763    -2.596721    8.523527    -3.229978    2.199073    3.478750    -0.418997    -2.606228    -10.257469    12.974859    0.000000    0.000000    0.000000    -4.057442    8.967601    4.850786    -1.919889    2.337441    -1.214653    0.576154    -12.555416    -19.618124    0.000000    0.000000    0.000000    
88.141975    110.654900    21.136969    -0.910924    -3.332351    -85.393196    -4.945579    -21.691414    -3.601864    1.050557    8.101127    -2.728169    10.428026    41.858303    3.542426    -16.470406    -15.945809    1.855158    17.167749    -0.415294    3.544060    -14.707926    -7.530516    -11.632112    2.909721    -4.584093    6.015962    3.348810    -4.793882    -1.968478    -12.025522    -2.615823    13.416125    5.157176    -8.100955    3.611340    -1.857052    0.175424    -6.722363    -10.573069    -0.176183    2.629368    -2.594148    8.527957    -3.214512    2.194248    3.453713    -0.128269    -2.646725    -10.229078    12.663748    0.000000    0.000000    0.000000    -4.055334    8.976164    4.820619    -1.916816    2.356475    -0.925308    0.519521    -12.585067    -19.888069    0.000000    0.000000    0.000000    
88.139137    110.653389    21.141245    -0.911075    -3.329148    -85.390182    -4.947004    -21.697010    -3.603252    1.050170    8.102368    -2.729021    10.520716    41.772102    3.546671    -16.587460    -15.792728    1.862363    17.182058    -0.407525    3.551850    -14.721396    -7.521204    -11.639535    2.932159    -4.538504    6.026159    3.261897    -4.748444    -1.975154    -12.024621    -2.626094    13.429050    5.163077    -8.092825    3.590587    -1.860145    0.179525    -6.699875    -10.570976    -0.171127    2.613243    -2.592692    8.531096    -3.227166    2.194814    3.452430    -0.131974    -2.662095    -10.251668    12.664598    0.000000    0.000000    0.000000    -4.056280    8.977535    4.829640    -1.916222    2.332643    -1.239862    0.581294    -12.558475    -19.567812    0.000000    0.000000    0.000000    
88.136497    110.654282    21.148512    -0.921472    -3.336000    -85.392113    -4.946439    -21.687828    -3.597838    1.044725    8.100122    -2.723733    10.538424    41.761864    3.540650    -16.606686    -15.784902    1.855207    17.186182    -0.414598    3.551343    -14.722270    -7.506756    -11.636872    2.931144    -4.546320    6.028611    3.260022    -4.756675    -1.990288    -12.031573    -2.611619    13.422195    5.165982    -8.105195    3.591501    -1.861597    0.175898    -6.690201    -10.568940    -0.174809    2.617955    -2.601303    8.544141    -3.233425    2.191553    3.446781    -0.109842    -2.670698    -10.246745    12.652195    0.000000    0.000000    0.000000    -4.070534    8.990737    4.828239    -1.911806    2.329543    -1.206180    0.580367    -12.559145    -19.593910    0.000000    0.000000    0.000000    
88.136368    110.654007    21.154688    -0.915703    -3.335948    -85.390495    -4.946004    -21.701399    -3.600787    1.045634    8.109217    -2.726307    10.421464    41.866928    3.542982    -16.474604    -15.990755    1.847545    17.178766    -0.419463    3.562890    -14.720228    -7.509731    -11.639384    2.918086    -4.609429    6.016505    3.340997    -4.819173    -1.955807    -12.039921    -2.624560    13.432727    5.173822    -8.090844    3.583404    -1.857279    0.169436    -6.684073    -10.584027    -0.181097    2.615860    -2.606630    8.534957    -3.232923    2.191947    3.457466    -0.088779    -2.658466    -10.248748    12.635993    0.000000    0.000000    0.000000    -4.076528    8.980828    4.818000    -1.905686    2.342001    -1.194413    0.570833    -12.562339    -19.595726    0.000000    0.000000    0.000000    
